<svg xmlns="http://www.w3.org/2000/svg" width="166" height="166" viewBox="0 0 166 166">
    <defs>
        <style>
            .cls-1,.cls-4{fill:#008c9a}.cls-2{fill:#fff;stroke:#fff;stroke-width:5.3px}.cls-2,.cls-3{stroke-linecap:round;stroke-linejoin:round}.cls-3,.cls-6{fill:none}.cls-3,.cls-4{stroke:#008c9a}.cls-3{stroke-width:6px}.cls-5{stroke:none}
        </style>
    </defs>
    <g id="Group_2490" data-name="Group 2490" transform="translate(-1904 -55)">
        <rect id="Rectangle_1" width="166" height="166" class="cls-1" data-name="Rectangle 1" rx="40" transform="translate(1904 55)"/>
        <g id="Group_2482" data-name="Group 2482" transform="translate(1943.481 83.776)">
            <path id="Path_1522" d="M536.633 952.356l-30.478-30.479a4.318 4.318 0 0 1 0-6.1l48.767-48.762 29.948 2.719a4.316 4.316 0 0 1 3.905 3.905l2.72 29.948-48.763 48.767a4.319 4.319 0 0 1-6.099.002z" class="cls-2" data-name="Path 1522" transform="translate(-504.894 -856.175)"/>
            <path id="Line_115" d="M27.431 0L0 27.431" class="cls-3" data-name="Line 115" transform="translate(22.597 35.222)"/>
            <path id="Line_116" d="M27.431 0L0 27.431" class="cls-3" data-name="Line 116" transform="translate(34.789 47.414)"/>
        </g>
        <g id="Ellipse_42" class="cls-4" data-name="Ellipse 42" transform="translate(2013 100)">
            <circle cx="6" cy="6" r="6" class="cls-5"/>
            <circle cx="6" cy="6" r="5.5" class="cls-6"/>
        </g>
    </g>
</svg>
