<svg xmlns="http://www.w3.org/2000/svg" width="423.197" height="132.576" viewBox="0 0 423.197 132.576">
    <defs>
        <style>
            .cls-1{fill:#001c50}.cls-2{fill:#007b89}.cls-3{fill:#4d4848}
        </style>
    </defs>
    <g id="Logo_New" data-name="Logo New" transform="translate(-232 -309.468)">
        <path id="Path_200" d="M228.865 175.689v12.868q0 5.658 2.757 7.353a12.585 12.585 0 0 0 6.717 1.694 9.252 9.252 0 0 0 6.222-2.05 6.26 6.26 0 0 0 2.262-5.3v-.566a8.547 8.547 0 0 1 1.909-5.586 6.966 6.966 0 0 1 5.729-2.325h5.8v9.474q0 9.195-6.01 13.364t-16.33 4.172q-10.606 0-16.543-5.232t-5.939-15.98v-28q0-10.888 5.939-16.828t16.542-5.947q10.464 0 16.4 5.939t5.939 16.828v9.051q0 7.075-9.333 7.075zm0-9.616h17.96v-7.212q0-5.514-2.545-8.2a8.413 8.413 0 0 0-6.364-2.691 8.571 8.571 0 0 0-6.505 2.691q-2.546 2.691-2.545 8.2z" class="cls-1" data-name="Path 200" transform="translate(153.991 197.429)"/>
        <path id="Path_201" d="M305.9 150.027a4.922 4.922 0 0 1-2.192-.071 15.923 15.923 0 0 0-6.646-.283 18.35 18.35 0 0 0-5.8 1.98 12.957 12.957 0 0 0-4.1 3.465 7.026 7.026 0 0 0-1.556 4.313V194.5a4.022 4.022 0 0 0 .354 1.909 2.835 2.835 0 0 0 1.06 1.06 7.579 7.579 0 0 1 2.192 2.334 7.8 7.8 0 0 1 1.06 4.313l-.141 3.96h-22.904v-4.11a7.408 7.408 0 0 1 1.131-4.313 8.262 8.262 0 0 1 2.263-2.334 2.871 2.871 0 0 0 1.06-1.06 4.455 4.455 0 0 0 .354-2.051v-43.262a2.848 2.848 0 0 0-1.556-2.4 7.716 7.716 0 0 1-2.192-2.263 6.873 6.873 0 0 1-1.06-3.959v-4.808h14.99q3.395 0 3.394 3.111v1.839a28.5 28.5 0 0 1 3.959-2.545 35.823 35.823 0 0 1 4.031-1.839 18.778 18.778 0 0 1 4.6-1.131 19.542 19.542 0 0 1 6.079.425 4.759 4.759 0 0 1 1.694.849 2.591 2.591 0 0 1 .99 2.263v7.912q0 1.413-1.057 1.624z" class="cls-1" data-name="Path 201" transform="translate(153.812 197.429)"/>
        <path id="Path_202" d="M334.979 136.8a26.863 26.863 0 0 1 9.192 1.485 21.817 21.817 0 0 1 7.075 4.1 17.639 17.639 0 0 1 6.079 13.364v33.232q0 9.195-6.079 14.495t-16.263 5.3q-10.606 0-16.543-5.515t-5.939-16.4V158.3q0-10.887 5.939-16.192t16.538-5.3zm0 60.666a8.9 8.9 0 0 0 6.364-2.4q2.546-2.4 2.545-7.212V158.3q0-6.079-2.691-8.2a10.177 10.177 0 0 0-6.505-2.121 9.477 9.477 0 0 0-6.363 2.05q-2.407 2.052-2.4 7.707v29.837q0 5.514 2.545 7.707a9.608 9.608 0 0 0 6.505 2.191z" class="cls-1" data-name="Path 202" transform="translate(153.655 197.429)"/>
        <path id="Path_203" d="M414.486 196.479a9.226 9.226 0 0 1 2.474 2.757 8.459 8.459 0 0 1 1.343 4.738v4.1H404.87a3.876 3.876 0 0 1-2.757-.99 4.354 4.354 0 0 1-1.343-2.122 10.464 10.464 0 0 1-2.97 1.838 24.273 24.273 0 0 1-3.605 1.273 17.953 17.953 0 0 1-4.738.566q-10.891 0-15.627-6.152t-4.738-17.181v-.427a27.505 27.505 0 0 1 1.556-9.757 17.776 17.776 0 0 1 4.313-6.717 19.344 19.344 0 0 1 6.434-4.03 30.426 30.426 0 0 1 7.919-1.838 54 54 0 0 0 5.586-.707q2.193-.425 3.465-.708a13.246 13.246 0 0 0 2.122-.707v-.991a41.822 41.822 0 0 0-.212-4.313 9.5 9.5 0 0 0-1.061-3.606 5.725 5.725 0 0 0-2.545-2.4 10.576 10.576 0 0 0-4.667-.849 12.456 12.456 0 0 0-4.667.708 5.692 5.692 0 0 0-2.474 1.768 5.391 5.391 0 0 0-.991 2.334 15.553 15.553 0 0 0-.212 2.545v-.142a2.887 2.887 0 0 1-.919 2.333 5.129 5.129 0 0 1-2.4 1.06 22.414 22.414 0 0 1-3.394.354q-1.907.073-3.747.071h-2.97V154.2a19.9 19.9 0 0 1 1.131-6.717 14.693 14.693 0 0 1 3.676-5.656 18.343 18.343 0 0 1 6.647-3.959 30.17 30.17 0 0 1 10.182-1.485 32.265 32.265 0 0 1 10.252 1.414 17.268 17.268 0 0 1 6.787 4.03 14.966 14.966 0 0 1 3.747 6.364 29.628 29.628 0 0 1 1.132 8.555v36.484c0 .755.022 1.414.071 1.98a1.672 1.672 0 0 0 .64 1.272zm-22.621 1.273a10.182 10.182 0 0 0 4.242-.777 7.825 7.825 0 0 0 2.691-1.909 9.068 9.068 0 0 0 1.839-2.691v-20.643a19.243 19.243 0 0 1-2.262.565q-1.133.286-2.9.566t-4.313.565a9.495 9.495 0 0 0-6.717 3.748 12.735 12.735 0 0 0-2.616 8.132v1.268a11.827 11.827 0 0 0 2.691 8.132 9.3 9.3 0 0 0 7.339 3.044z" class="cls-2" data-name="Path 203" transform="translate(153.459 197.431)"/>
        <path id="Path_204" d="M441.682 222.362q0 9.192-4.313 14.778a20.012 20.012 0 0 1-11.949 7.283 5.262 5.262 0 0 1-1.485.071.8.8 0 0 1-.786-.808.694.694 0 0 1 .009-.111v-11.032a1.2 1.2 0 0 1 .354-.99c.234-.19.446-.378.636-.566a9.1 9.1 0 0 0 2.9-2.757 9.711 9.711 0 0 0 1.06-5.162v-72.12a3.109 3.109 0 0 0-1.556-2.545 7.022 7.022 0 0 1-2.122-2.263 7.241 7.241 0 0 1-.99-3.959v-4.808h15.131a3.588 3.588 0 0 1 2.4.637 3.549 3.549 0 0 1 .708 2.616z" class="cls-2" data-name="Path 204" transform="translate(153.272 197.427)"/>
        <path id="Path_205" d="M498.208 196.479a9.225 9.225 0 0 1 2.474 2.757 8.459 8.459 0 0 1 1.343 4.738v4.1h-13.433a3.876 3.876 0 0 1-2.757-.99 4.361 4.361 0 0 1-1.343-2.122 10.481 10.481 0 0 1-2.97 1.839 24.272 24.272 0 0 1-3.605 1.273 17.953 17.953 0 0 1-4.738.566q-10.891 0-15.627-6.152t-4.738-17.181v-.427a27.506 27.506 0 0 1 1.556-9.757 17.776 17.776 0 0 1 4.313-6.717 19.343 19.343 0 0 1 6.434-4.03 30.425 30.425 0 0 1 7.92-1.838 54 54 0 0 0 5.586-.707q2.193-.425 3.464-.708a13.235 13.235 0 0 0 2.121-.707v-.991a42.123 42.123 0 0 0-.212-4.313 9.52 9.52 0 0 0-1.061-3.606 5.73 5.73 0 0 0-2.545-2.4 10.576 10.576 0 0 0-4.667-.849 12.456 12.456 0 0 0-4.667.708 5.691 5.691 0 0 0-2.474 1.768 5.4 5.4 0 0 0-.991 2.334 15.553 15.553 0 0 0-.212 2.545v-.142a2.884 2.884 0 0 1-.919 2.333 5.129 5.129 0 0 1-2.4 1.06 22.414 22.414 0 0 1-3.394.354q-1.909.073-3.747.071h-2.97V154.2a19.894 19.894 0 0 1 1.131-6.717 14.692 14.692 0 0 1 3.676-5.656 18.343 18.343 0 0 1 6.647-3.959 30.17 30.17 0 0 1 10.182-1.485 32.265 32.265 0 0 1 10.252 1.414 17.272 17.272 0 0 1 6.788 4.03 14.982 14.982 0 0 1 3.747 6.364 29.661 29.661 0 0 1 1.132 8.555v36.484c0 .755.022 1.414.071 1.98a1.672 1.672 0 0 0 .64 1.272zm-22.621 1.273a10.182 10.182 0 0 0 4.242-.777 7.816 7.816 0 0 0 2.691-1.909 9.066 9.066 0 0 0 1.839-2.691v-20.643a19.24 19.24 0 0 1-2.262.565q-1.133.286-2.9.566t-4.313.565a9.494 9.494 0 0 0-6.717 3.748 12.729 12.729 0 0 0-2.616 8.132v1.268a11.827 11.827 0 0 0 2.691 8.132 9.3 9.3 0 0 0 7.34 3.044z" class="cls-2" data-name="Path 205" transform="translate(153.17 197.431)"/>
        <g id="Group_2178" data-name="Group 2178" transform="translate(232 309.467)">
            <path id="Path_207" d="M191.163 209.97l-72.418-40.516-15.773.011a3.59 3.59 0 0 1-2.9-1.464l-8.331-12.721 30.574.039a11.631 11.631 0 0 1 5.454 1.368l56.338 29.08-2.381-6.522-53.626-28.573-35.68.151a3.593 3.593 0 0 1-2.782-1.3L79 136.671l54.518-.225a4.741 4.741 0 0 1 2.26.564c37.806 20.306 37.953 20.174 37.9 20.034l-9.942-26.691 16.926-9.78 31.2 85.76a3.592 3.592 0 0 1-3.385 4.819l-12.97-.039a8.958 8.958 0 0 1-4.344-1.143z" class="cls-1" data-name="Path 207" transform="translate(-78.996 -114.053)"/>
            <path id="Path_208" d="M131 197.017l9.985-17.545-12.785-7.284-13.612 24.826h-2.057a6.313 6.313 0 0 0-6.313 6.313v5.91h33.618v-5.9a6.313 6.313 0 0 0-6.308-6.313z" class="cls-1" data-name="Path 208" transform="translate(-78.553 -112.135)"/>
            <path id="Path_212" d="M145.72 126.235l11.921-.076a4.841 4.841 0 0 1 4.566 3.138l4.343 11.549h20.246l-6.22-17.371a10.3 10.3 0 0 1 .418-8.359l.486-.96-18.457.347a5.922 5.922 0 0 0-5.023 2.96l-.81 1.413-4.153.17a5.816 5.816 0 0 0-4.781 2.868z" class="cls-1" data-name="Path 212" transform="translate(-77.909 -114.158)"/>
        </g>
        <g id="Group_2179" data-name="Group 2179" transform="translate(259.725 417.243)">
            <path id="Path_213" d="M182.606 235.093a9.229 9.229 0 0 1-2.693-6.808 9.117 9.117 0 0 1 2.819-6.855 9.624 9.624 0 0 1 6.907-2.693 10.376 10.376 0 0 1 7.482 3.093l-2.269 2.394a6.975 6.975 0 0 0-5.211-2.194 6.148 6.148 0 0 0-4.464 1.771 6.513 6.513 0 0 0-.025 8.9 5.973 5.973 0 0 0 4.439 1.8 7.372 7.372 0 0 0 5.161-2.12v-2.794h-5.337v-2.993h8.476v7.455a11.186 11.186 0 0 1-8.4 3.716 9.482 9.482 0 0 1-6.879-2.67z" class="cls-3" data-name="Path 213" transform="translate(-179.909 -218.234)"/>
            <path id="Path_214" d="M206.279 222.766h3.093v13.541h-3.093v-1.67a5.668 5.668 0 0 1-4.414 1.995 6.258 6.258 0 0 1-4.812-2.045 7.255 7.255 0 0 1-1.9-5.111 6.988 6.988 0 0 1 1.9-5.037 6.429 6.429 0 0 1 4.812-1.995 5.691 5.691 0 0 1 4.414 2.045zm-1.047 3.84a4.035 4.035 0 0 0-5.7-.03l-.03.03a4.46 4.46 0 0 0 0 5.86 4.033 4.033 0 0 0 5.7.032l.032-.032a4.389 4.389 0 0 0-.002-5.859z" class="cls-3" data-name="Path 214" transform="translate(-175.056 -217.054)"/>
            <path id="Path_215" d="M208.452 236.316v-13.541h3.117v1.869a4.069 4.069 0 0 1 3.765-2.219 4.915 4.915 0 0 1 1.62.274l-.274 3.117a5.219 5.219 0 0 0-1.57-.274c-2.02 0-3.416 1.347-3.416 4.165v6.609z" class="cls-3" data-name="Path 215" transform="translate(-170.822 -217.06)"/>
            <path id="Path_216" d="M216.13 230.568v-7.88h3.27v7.88a2.859 2.859 0 1 0 5.71.323 2.64 2.64 0 0 0 0-.323v-7.88h3.267v7.88c0 3.765-2.319 5.985-6.134 5.985-3.765 0-6.109-2.22-6.109-5.985z" class="cls-3" data-name="Path 216" transform="translate(-168.378 -216.976)"/>
            <path id="Path_217" d="M238.2 218.583h3.242v18.951h-3.164v-1.771a5.3 5.3 0 0 1-4.314 2.095 6.362 6.362 0 0 1-4.812-2.02 7.207 7.207 0 0 1-1.921-5.087 7.132 7.132 0 0 1 1.921-5.037 6.318 6.318 0 0 1 4.788-2.045 5.266 5.266 0 0 1 4.263 2.045zm-.923 15.111a4.222 4.222 0 0 0 1.1-2.943 4.11 4.11 0 0 0-1.122-2.917 3.974 3.974 0 0 0-5.62-.065c-.022.021-.045.042-.066.065a4.463 4.463 0 0 0 0 5.86 3.657 3.657 0 0 0 2.842 1.2 3.7 3.7 0 0 0 2.869-1.2z" class="cls-3" data-name="Path 217" transform="translate(-164.843 -218.282)"/>
            <path id="Path_218" d="M251.1 222.766h3.093v13.541H251.1v-1.67a5.662 5.662 0 0 1-4.414 1.995 6.258 6.258 0 0 1-4.812-2.045 7.255 7.255 0 0 1-1.9-5.111 6.988 6.988 0 0 1 1.9-5.037 6.429 6.429 0 0 1 4.812-1.995 5.691 5.691 0 0 1 4.414 2.045zm-1.047 3.84a4.035 4.035 0 0 0-5.7-.03l-.03.03a4.463 4.463 0 0 0 0 5.86 4.033 4.033 0 0 0 5.7.032l.032-.032a4.386 4.386 0 0 0 0-5.859z" class="cls-3" data-name="Path 218" transform="translate(-160.787 -217.054)"/>
            <path id="Path_219" d="M258.3 218.98h3.416v18.429H258.3z" class="cls-3" data-name="Path 219" transform="translate(-154.952 -218.156)"/>
            <path id="Path_220" d="M263.7 236.317v-13.541h3.192v1.894a4.632 4.632 0 0 1 4.265-2.241 5.3 5.3 0 0 1 3.765 1.471 5.457 5.457 0 0 1 1.546 4.165v8.254H273.2v-7.356c0-2.269-1.172-3.56-2.968-3.56a3.33 3.33 0 0 0-3.308 3.353c0 .088 0 .177.012.264v7.306z" class="cls-3" data-name="Path 220" transform="translate(-153.236 -217.061)"/>
            <path id="Path_221" d="M286.165 218.583h3.242v18.951h-3.164v-1.771a5.3 5.3 0 0 1-4.314 2.095 6.365 6.365 0 0 1-4.813-2.02 7.212 7.212 0 0 1-1.919-5.087 7.13 7.13 0 0 1 1.919-5.037 6.318 6.318 0 0 1 4.788-2.045 5.266 5.266 0 0 1 4.263 2.045zm-.923 15.111a4.215 4.215 0 0 0 1.1-2.943 4.11 4.11 0 0 0-1.122-2.917 3.974 3.974 0 0 0-5.62-.065c-.022.021-.045.042-.066.065a4.463 4.463 0 0 0 0 5.86 3.657 3.657 0 0 0 2.842 1.2 3.705 3.705 0 0 0 2.869-1.2z" class="cls-3" data-name="Path 221" transform="translate(-149.576 -218.282)"/>
            <path id="Path_222" d="M289.943 224.494a7.046 7.046 0 0 1 5.211-2.07 6.95 6.95 0 0 1 5.186 2.07 6.828 6.828 0 0 1 2.045 5.037 6.986 6.986 0 0 1-6.836 7.135h-.4a6.953 6.953 0 0 1-7.223-6.666 6.008 6.008 0 0 1 0-.465 6.906 6.906 0 0 1 2.017-5.041zm8.03 2.145a3.915 3.915 0 0 0-5.537-.1q-.049.047-.1.1a4.252 4.252 0 0 0 0 5.81 3.916 3.916 0 0 0 5.538.1l.1-.1a4.252 4.252 0 0 0-.001-5.81z" class="cls-3" data-name="Path 222" transform="translate(-145.524 -217.061)"/>
            <path id="Path_223" d="M300.821 236.317v-13.541h3.192v1.894a4.631 4.631 0 0 1 4.265-2.241 5.3 5.3 0 0 1 3.765 1.471 5.458 5.458 0 0 1 1.545 4.165v8.254h-3.267v-7.356c0-2.269-1.172-3.56-2.968-3.56a3.33 3.33 0 0 0-3.308 3.353c0 .088 0 .177.012.264v7.306z" class="cls-3" data-name="Path 223" transform="translate(-141.418 -217.061)"/>
            <path id="Path_224" d="M325.962 230.7h-10.324a3.883 3.883 0 0 0 4.14 3.118 7.65 7.65 0 0 0 4.464-1.4l1.3 2.319a9.576 9.576 0 0 1-5.885 1.871c-5.087 0-7.331-3.491-7.331-7.081a6.938 6.938 0 0 1 1.945-5.062 6.82 6.82 0 0 1 5.086-2.02 6.418 6.418 0 0 1 6.713 6.108 6.533 6.533 0 0 1-.005.7 11.5 11.5 0 0 1-.103 1.447zm-10.324-2.469h7.231a3.394 3.394 0 0 0-3.516-3.066 3.675 3.675 0 0 0-3.715 3.068z" class="cls-3" data-name="Path 224" transform="translate(-137.758 -217.055)"/>
            <path id="Path_225" d="M323.781 233.991l1.846-1.991a4.727 4.727 0 0 0 3.641 1.921c1.172 0 1.995-.624 1.995-1.421a1.5 1.5 0 0 0-1.023-1.3 16.073 16.073 0 0 0-1.645-.674q-.876-.324-1.72-.722a3.757 3.757 0 0 1-.923-6.328 5.4 5.4 0 0 1 3.56-1.122 5.91 5.91 0 0 1 4.638 1.995l-1.7 2.07a4.09 4.09 0 0 0-3.041-1.4c-1.023 0-1.647.548-1.647 1.272 0 .6.4 1.047 1.172 1.318 1.945.773 3.043 1.222 3.267 1.346a3.8 3.8 0 0 1 2.299 3.445 3.853 3.853 0 0 1-1.45 3.068 5.7 5.7 0 0 1-3.815 1.222 6.564 6.564 0 0 1-5.451-2.7z" class="cls-3" data-name="Path 225" transform="translate(-134.109 -217.084)"/>
            <path id="Path_226" d="M333.521 220.4a2.035 2.035 0 0 1 2.022-2.046h.073a2.045 2.045 0 1 1-2.095 2.045zm3.691 17.206h-3.267v-13.54h3.267z" class="cls-3" data-name="Path 226" transform="translate(-131.008 -218.355)"/>
            <path id="Path_227" d="M349.353 222.766h3.093v13.541h-3.093v-1.67a5.666 5.666 0 0 1-4.414 1.995 6.258 6.258 0 0 1-4.812-2.045 7.255 7.255 0 0 1-1.9-5.111 6.988 6.988 0 0 1 1.9-5.037 6.429 6.429 0 0 1 4.812-1.995 5.691 5.691 0 0 1 4.414 2.045zm-1.047 3.84a4.035 4.035 0 0 0-5.7-.03l-.03.03a4.463 4.463 0 0 0 0 5.86 4.033 4.033 0 0 0 5.7.032l.032-.032a4.386 4.386 0 0 0-.002-5.859z" class="cls-3" data-name="Path 227" transform="translate(-129.51 -217.054)"/>
            <path id="Path_228" d="M358.419 235.093a9.229 9.229 0 0 1-2.693-6.808 9.116 9.116 0 0 1 2.817-6.855 9.624 9.624 0 0 1 6.907-2.693 10.376 10.376 0 0 1 7.482 3.093l-2.269 2.394a6.973 6.973 0 0 0-5.211-2.194 6.154 6.154 0 0 0-4.464 1.771 6.514 6.514 0 0 0-.025 8.9 5.98 5.98 0 0 0 4.439 1.8 7.372 7.372 0 0 0 5.161-2.12v-2.794h-5.337v-2.993h8.474v7.455a11.186 11.186 0 0 1-8.4 3.716 9.477 9.477 0 0 1-6.882-2.67z" class="cls-3" data-name="Path 228" transform="translate(-123.941 -218.234)"/>
            <path id="Path_229" d="M371.517 236.316v-13.541h3.117v1.869a4.072 4.072 0 0 1 3.766-2.219 4.915 4.915 0 0 1 1.62.274l-.274 3.117a5.22 5.22 0 0 0-1.571-.274c-2.02 0-3.416 1.347-3.416 4.165v6.609z" class="cls-3" data-name="Path 229" transform="translate(-118.912 -217.06)"/>
            <path id="Path_230" d="M380.4 224.494a7.046 7.046 0 0 1 5.211-2.07 6.95 6.95 0 0 1 5.186 2.07 6.828 6.828 0 0 1 2.045 5.037 6.986 6.986 0 0 1-6.836 7.135h-.4a6.953 6.953 0 0 1-7.221-6.666 6.008 6.008 0 0 1 0-.465 6.9 6.9 0 0 1 2.015-5.041zm8.03 2.145a3.915 3.915 0 0 0-5.537-.1q-.049.047-.1.1a4.255 4.255 0 0 0 0 5.81 3.916 3.916 0 0 0 5.538.1l.1-.1a4.255 4.255 0 0 0 .001-5.81z" class="cls-3" data-name="Path 230" transform="translate(-116.728 -217.061)"/>
            <path id="Path_231" d="M391.148 230.568v-7.88h3.267v7.88a2.859 2.859 0 1 0 5.71.323 2.628 2.628 0 0 0 0-.323v-7.88h3.267v7.88c0 3.765-2.319 5.985-6.134 5.985-3.765 0-6.109-2.22-6.109-5.985z" class="cls-3" data-name="Path 231" transform="translate(-112.663 -216.976)"/>
            <path id="Path_232" d="M415.241 224.511a7.089 7.089 0 0 1 1.9 5.01 7.191 7.191 0 0 1-1.921 5.061 6.242 6.242 0 0 1-4.788 2.045 5.573 5.573 0 0 1-4.364-2.02v7.251H402.8v-19.1h3.242v1.8a5.474 5.474 0 0 1 4.414-2.12 6.266 6.266 0 0 1 4.788 2.079zm-8.154 7.98a4.033 4.033 0 0 0 5.685 0 4.222 4.222 0 0 0 1.1-2.943 4.112 4.112 0 0 0-1.1-2.917 3.975 3.975 0 0 0-5.621-.063l-.063.063a4.46 4.46 0 0 0 0 5.86z" class="cls-3" data-name="Path 232" transform="translate(-108.955 -217.057)"/>
        </g>
    </g>
</svg>
