<svg xmlns="http://www.w3.org/2000/svg" width="480.998" height="150.684" viewBox="0 0 480.998 150.684">
    <defs>
        <style>
            .cls-1{fill:#fff}
        </style>
    </defs>
    <g id="Logo_New" data-name="Logo New" transform="translate(-232 -309.467)">
        <path id="Path_200" d="M230.7 181v14.626q0 6.431 3.134 8.358a14.3 14.3 0 0 0 7.634 1.926 10.516 10.516 0 0 0 7.072-2.33 7.115 7.115 0 0 0 2.571-6.028v-.643a9.714 9.714 0 0 1 2.17-6.348 7.918 7.918 0 0 1 6.512-2.642h6.59v10.768q0 10.45-6.831 15.189t-18.561 4.741q-12.054 0-18.8-5.946t-6.751-18.162v-31.83q0-12.375 6.751-19.126t18.8-6.751q11.893 0 18.644 6.751t6.751 19.126v10.287q0 8.041-10.607 8.042zm0-10.929h20.413v-8.2q0-6.268-2.893-9.322a9.562 9.562 0 0 0-7.233-3.058 9.741 9.741 0 0 0-7.394 3.058q-2.893 3.058-2.893 9.322z" class="cls-1" data-name="Path 200" transform="translate(172.761 200.812)"/>
        <path id="Path_201" d="M311.186 151.824a5.594 5.594 0 0 1-2.492-.08 18.1 18.1 0 0 0-7.554-.322 20.855 20.855 0 0 0-6.59 2.251 14.726 14.726 0 0 0-4.661 3.938 7.985 7.985 0 0 0-1.768 4.9v39.862a4.571 4.571 0 0 0 .4 2.17 3.223 3.223 0 0 0 1.205 1.205 8.613 8.613 0 0 1 2.492 2.653 8.864 8.864 0 0 1 1.205 4.9l-.161 4.5h-26.034v-4.671a8.421 8.421 0 0 1 1.286-4.9 9.39 9.39 0 0 1 2.572-2.653 3.263 3.263 0 0 0 1.205-1.205 5.063 5.063 0 0 0 .4-2.331v-49.173a3.237 3.237 0 0 0-1.768-2.732 8.772 8.772 0 0 1-2.492-2.572 7.812 7.812 0 0 1-1.205-4.5V137.6h17.037q3.858 0 3.858 3.536v2.09a32.39 32.39 0 0 1 4.5-2.893 40.723 40.723 0 0 1 4.582-2.09 21.344 21.344 0 0 1 5.224-1.286 22.21 22.21 0 0 1 6.909.483 5.409 5.409 0 0 1 1.926.965 2.944 2.944 0 0 1 1.125 2.572v9q0 1.605-1.2 1.846z" class="cls-1" data-name="Path 201" transform="translate(179.63 200.821)"/>
        <path id="Path_202" d="M338.049 136.805a30.532 30.532 0 0 1 10.448 1.688 24.8 24.8 0 0 1 8.042 4.661 20.049 20.049 0 0 1 6.909 15.189v37.77q0 10.45-6.909 16.474t-18.484 6.028q-12.054 0-18.8-6.268T312.5 193.7v-32.463q0-12.374 6.751-18.4t18.8-6.028zm0 68.952a10.116 10.116 0 0 0 7.233-2.732q2.893-2.73 2.893-8.2v-33.588q0-6.91-3.058-9.323a11.567 11.567 0 0 0-7.394-2.41 10.772 10.772 0 0 0-7.232 2.33q-2.735 2.333-2.732 8.76v33.913q0 6.267 2.893 8.76a10.92 10.92 0 0 0 7.397 2.491z" class="cls-1" data-name="Path 202" transform="translate(185.636 200.812)"/>
        <path id="Path_203" d="M420.687 204.689a10.487 10.487 0 0 1 2.812 3.134 9.615 9.615 0 0 1 1.527 5.385v4.661h-15.269a4.4 4.4 0 0 1-3.134-1.125 4.948 4.948 0 0 1-1.527-2.411 11.893 11.893 0 0 1-3.376 2.09 27.588 27.588 0 0 1-4.1 1.446 20.4 20.4 0 0 1-5.385.643q-12.379 0-17.761-6.992t-5.385-19.528v-.485a31.262 31.262 0 0 1 1.768-11.09 20.2 20.2 0 0 1 4.9-7.634 21.986 21.986 0 0 1 7.312-4.58 34.579 34.579 0 0 1 9-2.089 61.371 61.371 0 0 0 6.349-.8q2.492-.483 3.938-.8a15.056 15.056 0 0 0 2.411-.8v-1.126a47.525 47.525 0 0 0-.241-4.9 10.8 10.8 0 0 0-1.206-4.1 6.508 6.508 0 0 0-2.893-2.732 12.02 12.02 0 0 0-5.3-.965 14.157 14.157 0 0 0-5.3.8 6.469 6.469 0 0 0-2.812 2.009 6.126 6.126 0 0 0-1.126 2.653 17.665 17.665 0 0 0-.241 2.893v-.161a3.282 3.282 0 0 1-1.044 2.652 5.83 5.83 0 0 1-2.733 1.205 25.474 25.474 0 0 1-3.858.4q-2.168.083-4.259.08h-3.375v-5.786a22.612 22.612 0 0 1 1.283-7.636 16.7 16.7 0 0 1 4.178-6.429 20.848 20.848 0 0 1 7.555-4.5 34.291 34.291 0 0 1 11.572-1.688 36.672 36.672 0 0 1 11.653 1.607 19.627 19.627 0 0 1 7.714 4.58 17.009 17.009 0 0 1 4.259 7.233 33.672 33.672 0 0 1 1.287 9.724v41.467c0 .859.025 1.607.08 2.251a1.9 1.9 0 0 0 .727 1.445zm-25.711 1.446a11.572 11.572 0 0 0 4.822-.883 8.894 8.894 0 0 0 3.058-2.17 10.307 10.307 0 0 0 2.09-3.058v-23.462a21.871 21.871 0 0 1-2.571.642q-1.288.324-3.295.643t-4.9.642a10.791 10.791 0 0 0-7.634 4.26 14.475 14.475 0 0 0-2.973 9.242v1.441a13.442 13.442 0 0 0 3.058 9.242 10.572 10.572 0 0 0 8.342 3.46z" class="cls-1" data-name="Path 203" transform="translate(193.142 200.754)"/>
        <path id="Path_204" d="M444.213 233.972q0 10.447-4.9 16.8a22.745 22.745 0 0 1-13.581 8.277 5.983 5.983 0 0 1-1.688.08.906.906 0 0 1-.894-.919.794.794 0 0 1 .01-.126v-12.54a1.36 1.36 0 0 1 .4-1.125 9.83 9.83 0 0 0 .723-.643 10.349 10.349 0 0 0 3.3-3.134 11.036 11.036 0 0 0 1.205-5.867v-81.97a3.534 3.534 0 0 0-1.768-2.893 7.981 7.981 0 0 1-2.411-2.572 8.231 8.231 0 0 1-1.125-4.5v-5.465h17.2a4.078 4.078 0 0 1 2.732.724 4.034 4.034 0 0 1 .8 2.973z" class="cls-1" data-name="Path 204" transform="translate(200.313 200.885)"/>
        <path id="Path_205" d="M504.409 204.689a10.484 10.484 0 0 1 2.812 3.134 9.613 9.613 0 0 1 1.527 5.385v4.661h-15.269a4.405 4.405 0 0 1-3.134-1.125 4.957 4.957 0 0 1-1.527-2.411 11.912 11.912 0 0 1-3.375 2.09 27.59 27.59 0 0 1-4.1 1.446 20.405 20.405 0 0 1-5.385.643q-12.379 0-17.761-6.992t-5.385-19.528v-.485a31.264 31.264 0 0 1 1.768-11.09 20.2 20.2 0 0 1 4.9-7.634 21.984 21.984 0 0 1 7.312-4.58 34.579 34.579 0 0 1 9-2.089 61.371 61.371 0 0 0 6.348-.8q2.492-.483 3.937-.8a15.044 15.044 0 0 0 2.41-.8v-1.126a47.835 47.835 0 0 0-.241-4.9 10.818 10.818 0 0 0-1.206-4.1 6.512 6.512 0 0 0-2.893-2.732 12.02 12.02 0 0 0-5.3-.965 14.156 14.156 0 0 0-5.3.8 6.469 6.469 0 0 0-2.812 2.009 6.134 6.134 0 0 0-1.126 2.653 17.679 17.679 0 0 0-.241 2.893v-.161a3.278 3.278 0 0 1-1.044 2.652 5.83 5.83 0 0 1-2.733 1.205 25.475 25.475 0 0 1-3.858.4q-2.17.083-4.259.08H454.1v-5.786a22.609 22.609 0 0 1 1.283-7.636 16.7 16.7 0 0 1 4.178-6.429 20.847 20.847 0 0 1 7.555-4.5 34.291 34.291 0 0 1 11.572-1.688 36.673 36.673 0 0 1 11.653 1.607 19.631 19.631 0 0 1 7.716 4.58 17.028 17.028 0 0 1 4.259 7.233 33.712 33.712 0 0 1 1.287 9.724v41.467c0 .859.025 1.607.08 2.251a1.9 1.9 0 0 0 .727 1.445zm-25.709 1.446a11.573 11.573 0 0 0 4.822-.883 8.883 8.883 0 0 0 3.058-2.17 10.3 10.3 0 0 0 2.09-3.058v-23.462a21.866 21.866 0 0 1-2.571.642q-1.288.324-3.295.643t-4.9.642a10.791 10.791 0 0 0-7.634 4.26 14.468 14.468 0 0 0-2.973 9.242v1.441a13.442 13.442 0 0 0 3.058 9.242 10.576 10.576 0 0 0 8.342 3.46z" class="cls-1" data-name="Path 205" transform="translate(204.247 200.754)"/>
        <g id="Group_2178" data-name="Group 2178" transform="translate(232 309.467)">
            <path id="Path_207" d="M206.482 222.18l-82.309-46.049-17.927.013a4.08 4.08 0 0 1-3.292-1.664l-9.472-14.46 34.75.044a13.22 13.22 0 0 1 6.2 1.555l64.033 33.052-2.706-7.412-60.949-32.476-40.553.172a4.084 4.084 0 0 1-3.162-1.479L79 138.87l61.964-.255a5.389 5.389 0 0 1 2.569.641c42.97 23.079 43.136 22.93 43.076 22.771L175.3 131.69l19.238-11.116L230 218.047a4.082 4.082 0 0 1-3.848 5.477l-14.741-.044a10.182 10.182 0 0 1-4.929-1.3z" class="cls-1" data-name="Path 207" transform="translate(-78.996 -113.163)"/>
            <path id="Path_208" d="M134.385 200.409l11.348-19.942-14.533-8.279-15.471 28.217h-2.338a7.175 7.175 0 0 0-7.175 7.176v6.719h38.21v-6.711a7.175 7.175 0 0 0-7.17-7.176z" class="cls-1" data-name="Path 208" transform="translate(-74.775 -103.933)"/>
            <path id="Path_212" d="M145.72 127.884l13.549-.087a5.5 5.5 0 0 1 5.19 3.567l4.936 13.127h23.011l-7.069-19.743a11.7 11.7 0 0 1 .475-9.5l.552-1.092-20.978.394a6.731 6.731 0 0 0-5.705 3.362l-.921 1.606-4.72.193a6.611 6.611 0 0 0-5.434 3.26z" class="cls-1" data-name="Path 212" transform="translate(-68.647 -114.158)"/>
        </g>
        <g id="Group_2179" data-name="Group 2179" transform="translate(263.512 431.963)">
            <path id="Path_213" d="M182.975 237.328a10.49 10.49 0 0 1-3.061-7.738 10.362 10.362 0 0 1 3.2-7.792 10.939 10.939 0 0 1 7.85-3.061 11.793 11.793 0 0 1 8.5 3.515l-2.579 2.721a7.928 7.928 0 0 0-5.923-2.493 6.988 6.988 0 0 0-5.074 2.012 7.4 7.4 0 0 0-.028 10.117 6.789 6.789 0 0 0 5.045 2.041 8.379 8.379 0 0 0 5.866-2.409v-3.175h-6.066v-3.4h9.633v8.473a12.714 12.714 0 0 1-9.552 4.224 10.777 10.777 0 0 1-7.819-3.034z" class="cls-1" data-name="Path 213" transform="translate(-179.909 -218.166)"/>
            <path id="Path_214" d="M207.8 222.811h3.515V238.2H207.8v-1.9a6.442 6.442 0 0 1-5.017 2.267 7.113 7.113 0 0 1-5.469-2.324 8.246 8.246 0 0 1-2.155-5.809 7.942 7.942 0 0 1 2.155-5.725 7.307 7.307 0 0 1 5.469-2.267 6.469 6.469 0 0 1 5.017 2.324zm-1.19 4.365a4.586 4.586 0 0 0-6.484-.034l-.034.034a5.069 5.069 0 0 0 0 6.66 4.584 4.584 0 0 0 6.482.036l.036-.036a4.988 4.988 0 0 0-.002-6.66z" class="cls-1" data-name="Path 214" transform="translate(-172.311 -216.318)"/>
            <path id="Path_215" d="M208.452 238.213v-15.39h3.542v2.125a4.625 4.625 0 0 1 4.279-2.522 5.586 5.586 0 0 1 1.842.312l-.312 3.542a5.931 5.931 0 0 0-1.785-.312c-2.3 0-3.882 1.531-3.882 4.733v7.511z" class="cls-1" data-name="Path 215" transform="translate(-165.683 -216.327)"/>
            <path id="Path_216" d="M216.13 231.644v-8.956h3.713v8.956a3.25 3.25 0 0 0 6.49.367 3.019 3.019 0 0 0 0-.367v-8.956h3.713v8.956c0 4.279-2.636 6.8-6.972 6.8-4.279 0-6.944-2.523-6.944-6.8z" class="cls-1" data-name="Path 216" transform="translate(-161.856 -216.195)"/>
            <path id="Path_217" d="M239.7 218.583h3.685v21.539h-3.6v-2.012a6.024 6.024 0 0 1-4.9 2.381 7.231 7.231 0 0 1-5.469-2.3 8.191 8.191 0 0 1-2.183-5.782 8.106 8.106 0 0 1 2.183-5.725 7.181 7.181 0 0 1 5.442-2.324 5.985 5.985 0 0 1 4.846 2.324zm-1.049 17.175a4.8 4.8 0 0 0 1.247-3.344 4.671 4.671 0 0 0-1.275-3.316 4.516 4.516 0 0 0-6.388-.073c-.025.024-.051.048-.075.073a5.072 5.072 0 0 0 0 6.66 4.157 4.157 0 0 0 3.231 1.361 4.209 4.209 0 0 0 3.261-1.361z" class="cls-1" data-name="Path 217" transform="translate(-156.322 -218.241)"/>
            <path id="Path_218" d="M252.621 222.811h3.515V238.2h-3.515v-1.9a6.435 6.435 0 0 1-5.017 2.267 7.113 7.113 0 0 1-5.469-2.324 8.245 8.245 0 0 1-2.155-5.809 7.942 7.942 0 0 1 2.155-5.725 7.307 7.307 0 0 1 5.469-2.267 6.469 6.469 0 0 1 5.017 2.324zm-1.19 4.365a4.586 4.586 0 0 0-6.484-.034l-.034.034a5.072 5.072 0 0 0 0 6.66 4.584 4.584 0 0 0 6.482.036l.036-.036a4.985 4.985 0 0 0 0-6.66z" class="cls-1" data-name="Path 218" transform="translate(-149.971 -216.318)"/>
            <path id="Path_219" d="M258.3 218.98h3.882v20.946H258.3z" class="cls-1" data-name="Path 219" transform="translate(-140.836 -218.044)"/>
            <path id="Path_220" d="M263.7 238.215v-15.39h3.628v2.153a5.265 5.265 0 0 1 4.847-2.547 6.021 6.021 0 0 1 4.279 1.672 6.2 6.2 0 0 1 1.758 4.733v9.381H274.5v-8.361c0-2.579-1.332-4.046-3.373-4.046a3.785 3.785 0 0 0-3.76 3.81c0 .1 0 .2.013.3v8.3z" class="cls-1" data-name="Path 220" transform="translate(-138.149 -216.329)"/>
            <path id="Path_221" d="M287.664 218.583h3.685v21.539h-3.6v-2.012a6.024 6.024 0 0 1-4.9 2.381 7.234 7.234 0 0 1-5.471-2.3 8.2 8.2 0 0 1-2.182-5.782 8.1 8.1 0 0 1 2.182-5.725 7.181 7.181 0 0 1 5.442-2.324 5.985 5.985 0 0 1 4.846 2.324zm-1.049 17.175a4.79 4.79 0 0 0 1.248-3.344 4.671 4.671 0 0 0-1.275-3.316 4.516 4.516 0 0 0-6.388-.073c-.025.024-.051.048-.075.073a5.072 5.072 0 0 0 0 6.66 4.157 4.157 0 0 0 3.231 1.361 4.212 4.212 0 0 0 3.26-1.361z" class="cls-1" data-name="Path 221" transform="translate(-132.419 -218.241)"/>
            <path id="Path_222" d="M290.219 224.777a8.008 8.008 0 0 1 5.923-2.352 7.9 7.9 0 0 1 5.895 2.352 7.761 7.761 0 0 1 2.324 5.725 7.94 7.94 0 0 1-7.769 8.109h-.45a7.9 7.9 0 0 1-8.216-7.577 7.178 7.178 0 0 1 0-.529 7.849 7.849 0 0 1 2.293-5.728zm9.127 2.438a4.45 4.45 0 0 0-6.293-.112q-.056.054-.112.112a4.833 4.833 0 0 0 0 6.6 4.451 4.451 0 0 0 6.295.111c.037-.036.075-.073.111-.111a4.833 4.833 0 0 0-.001-6.6z" class="cls-1" data-name="Path 222" transform="translate(-126.076 -216.329)"/>
            <path id="Path_223" d="M300.821 238.215v-15.39h3.628v2.153a5.264 5.264 0 0 1 4.847-2.547 6.021 6.021 0 0 1 4.279 1.672 6.2 6.2 0 0 1 1.756 4.733v9.381h-3.713v-8.361c0-2.579-1.332-4.046-3.373-4.046a3.784 3.784 0 0 0-3.76 3.81c0 .1 0 .2.014.3v8.3z" class="cls-1" data-name="Path 223" transform="translate(-119.646 -216.329)"/>
            <path id="Path_224" d="M327.825 231.824h-11.734a4.414 4.414 0 0 0 4.705 3.544 8.694 8.694 0 0 0 5.074-1.587l1.474 2.636a10.884 10.884 0 0 1-6.689 2.126c-5.782 0-8.333-3.968-8.333-8.048a7.886 7.886 0 0 1 2.21-5.754 7.752 7.752 0 0 1 5.781-2.3 7.3 7.3 0 0 1 7.63 6.942 7.425 7.425 0 0 1-.006.8 13.057 13.057 0 0 1-.112 1.641zm-11.734-2.807h8.219a3.858 3.858 0 0 0-4-3.485 4.177 4.177 0 0 0-4.223 3.487z" class="cls-1" data-name="Path 224" transform="translate(-113.916 -216.32)"/>
            <path id="Path_225" d="M323.781 235.582l2.1-2.267a5.373 5.373 0 0 0 4.139 2.183c1.332 0 2.267-.709 2.267-1.615a1.705 1.705 0 0 0-1.163-1.473 18.258 18.258 0 0 0-1.87-.766q-1-.369-1.955-.821a4.271 4.271 0 0 1-1.049-7.192 6.142 6.142 0 0 1 4.046-1.275 6.717 6.717 0 0 1 5.271 2.267l-1.927 2.352a4.649 4.649 0 0 0-3.457-1.587c-1.163 0-1.871.623-1.871 1.446 0 .68.449 1.19 1.332 1.5 2.21.878 3.458 1.389 3.713 1.53a4.324 4.324 0 0 1 2.607 3.911 4.379 4.379 0 0 1-1.648 3.487 6.482 6.482 0 0 1-4.336 1.389 7.461 7.461 0 0 1-6.2-3.067z" class="cls-1" data-name="Path 225" transform="translate(-108.203 -216.365)"/>
            <path id="Path_226" d="M333.521 220.681a2.312 2.312 0 0 1 2.3-2.326h.082a2.324 2.324 0 1 1-2.381 2.324zm4.2 19.556H334v-15.39h3.713z" class="cls-1" data-name="Path 226" transform="translate(-103.349 -218.355)"/>
            <path id="Path_227" d="M350.872 222.811h3.515V238.2h-3.515v-1.9a6.44 6.44 0 0 1-5.017 2.267 7.113 7.113 0 0 1-5.469-2.324 8.246 8.246 0 0 1-2.155-5.809 7.942 7.942 0 0 1 2.155-5.725 7.307 7.307 0 0 1 5.469-2.267 6.469 6.469 0 0 1 5.017 2.324zm-1.19 4.365a4.586 4.586 0 0 0-6.484-.034l-.035.034a5.072 5.072 0 0 0 0 6.66 4.584 4.584 0 0 0 6.482.036l.036-.036a4.985 4.985 0 0 0 .001-6.66z" class="cls-1" data-name="Path 227" transform="translate(-101.003 -216.318)"/>
            <path id="Path_228" d="M358.787 237.328a10.49 10.49 0 0 1-3.061-7.738 10.36 10.36 0 0 1 3.2-7.792 10.939 10.939 0 0 1 7.85-3.061 11.793 11.793 0 0 1 8.5 3.515l-2.579 2.721a7.925 7.925 0 0 0-5.923-2.493 7 7 0 0 0-5.074 2.012 7.4 7.4 0 0 0-.028 10.117 6.8 6.8 0 0 0 5.045 2.041 8.379 8.379 0 0 0 5.866-2.409v-3.175h-6.065v-3.4h9.636v8.473a12.713 12.713 0 0 1-9.551 4.224 10.771 10.771 0 0 1-7.822-3.034z" class="cls-1" data-name="Path 228" transform="translate(-92.285 -218.166)"/>
            <path id="Path_229" d="M371.517 238.213v-15.39h3.542v2.125a4.629 4.629 0 0 1 4.281-2.522 5.586 5.586 0 0 1 1.842.312l-.312 3.542a5.932 5.932 0 0 0-1.786-.312c-2.3 0-3.882 1.531-3.882 4.733v7.511z" class="cls-1" data-name="Path 229" transform="translate(-84.412 -216.327)"/>
            <path id="Path_230" d="M380.679 224.777a8.008 8.008 0 0 1 5.923-2.352 7.9 7.9 0 0 1 5.895 2.352 7.76 7.76 0 0 1 2.324 5.725 7.94 7.94 0 0 1-7.769 8.109h-.449a7.9 7.9 0 0 1-8.216-7.577 6.665 6.665 0 0 1 0-.529 7.843 7.843 0 0 1 2.292-5.728zm9.127 2.438a4.45 4.45 0 0 0-6.293-.112q-.056.054-.112.112a4.836 4.836 0 0 0 0 6.6 4.451 4.451 0 0 0 6.295.111c.037-.036.075-.073.111-.111a4.836 4.836 0 0 0-.002-6.6z" class="cls-1" data-name="Path 230" transform="translate(-80.991 -216.329)"/>
            <path id="Path_231" d="M391.148 231.644v-8.956h3.713v8.956a3.25 3.25 0 0 0 6.49.367 3 3 0 0 0 0-.367v-8.956h3.713v8.956c0 4.279-2.636 6.8-6.972 6.8-4.279 0-6.943-2.523-6.943-6.8z" class="cls-1" data-name="Path 231" transform="translate(-74.628 -216.195)"/>
            <path id="Path_232" d="M416.94 224.8a8.057 8.057 0 0 1 2.155 5.694 8.173 8.173 0 0 1-2.183 5.752 7.1 7.1 0 0 1-5.442 2.324 6.334 6.334 0 0 1-4.96-2.3v8.241h-3.71V222.8h3.684v2.041a6.222 6.222 0 0 1 5.017-2.409 7.121 7.121 0 0 1 5.442 2.363zm-9.268 9.07a4.584 4.584 0 0 0 6.461 0 4.8 4.8 0 0 0 1.247-3.344 4.673 4.673 0 0 0-1.247-3.316 4.518 4.518 0 0 0-6.389-.072l-.072.072a5.069 5.069 0 0 0 0 6.66z" class="cls-1" data-name="Path 232" transform="translate(-68.822 -216.324)"/>
        </g>
    </g>
</svg>
