<svg xmlns="http://www.w3.org/2000/svg" width="304.845" height="333.129" viewBox="0 0 304.845 333.129">
    <defs>
        <style>
            .cls-1,.cls-4{fill:#0fa031}.cls-2{fill:#2d3244}.cls-3,.cls-5,.cls-7{fill:#fff}.cls-3{font-size:83px;font-family:MetaBold,Meta}.cls-5{font-size:42px;font-family:NunitoSans-ExtraBold,Nunito Sans;font-weight:800}.cls-6,.cls-7{stroke:none}
        </style>
    </defs>
    <g id="Group_1990" data-name="Group 1990" transform="translate(-2108 -1000.422)">
        <g id="Group_1987" data-name="Group 1987" transform="translate(2127.524 1000.422)">
            <path id="Path_1317" d="M216.475 292.284h79.381a5.222 5.222 0 1 1 0 10.445h-79.381a5.222 5.222 0 1 1 0-10.445zm0-31.869h79.381a5.222 5.222 0 0 1 0 10.445h-79.381a5.222 5.222 0 0 1 0-10.445zm0-31.869h79.381a5.222 5.222 0 0 1 0 10.445h-79.381a5.222 5.222 0 0 1 0-10.445zm0-31.869h50.971a5.222 5.222 0 1 1 0 10.445h-50.971a5.222 5.222 0 1 1 0-10.445zM209.419 376.4l25.757 18.424 25.756-18.424a5.81 5.81 0 0 1 6.76 0l25.757 18.424L319.21 376.4a5.81 5.81 0 0 1 6.76 0l25.757 18.424 25.752-18.424a5.823 5.823 0 0 1 6.768 0L410 394.822l25.761-18.422a5.817 5.817 0 0 1 6.764 0l9.167 6.555v-64.388a82.339 82.339 0 1 1 0-137.73V113.97L439.145 105l-25.761 18.424a5.81 5.81 0 0 1-6.76 0L380.867 105l-25.757 18.424a5.833 5.833 0 0 1-6.768 0L322.59 105l-25.757 18.424a5.823 5.823 0 0 1-6.768 0L264.312 105l-25.757 18.424a5.817 5.817 0 0 1-6.764 0L206.035 105l-12.535 8.966v268.982l9.158-6.551a5.817 5.817 0 0 1 6.764 0z" class="cls-1" data-name="Path 1317" transform="translate(-193.497 -105)"/>
            <path id="Path_1318" d="M488.462 273.447a11.809 11.809 0 0 0-1.813 6.475 12.651 12.651 0 0 0 .589 4.145 8.979 8.979 0 0 0 1.629 2.912 10.656 10.656 0 0 0 2.473 2.139 34.041 34.041 0 0 0 3 1.684l-.046-21.241a9.282 9.282 0 0 0-5.828 3.886z" class="cls-2" data-name="Path 1318" transform="translate(-284.359 -156.005)"/>
            <path id="Path_1319" d="M516.347 324.3a33.233 33.233 0 0 0-8.677-5.373v27.453a17.8 17.8 0 0 0 8.615-4.466q3.691-3.428 3.69-9.91a9.873 9.873 0 0 0-3.627-7.7z" class="cls-2" data-name="Path 1319" transform="translate(-290.874 -171.305)"/>
            <path id="Path_1320" d="M515.593 225.795a71.9 71.9 0 1 0 26.8 56 71.586 71.586 0 0 0-26.8-56z" class="cls-1" data-name="Path 1320" transform="translate(-257.072 -137.513)"/>
            <text id="Rp" class="cls-3" transform="translate(165.559 169.144)">
                <tspan x="0" y="0">Rp</tspan>
            </text>
        </g>
        <g id="Path_1321" class="cls-4" data-name="Path 1321">
            <path d="M273.559 81.604H23.249c-4.842 0-9.404-1.96-12.844-5.52C6.919 72.477 5 67.67 5 62.548V24.057c0-5.123 1.92-9.93 5.405-13.536C13.845 6.96 18.407 5 23.249 5h250.31c4.842 0 9.403 1.96 12.844 5.52 3.485 3.607 5.405 8.414 5.405 13.537v38.49c0 5.123-1.92 9.93-5.405 13.537-3.44 3.56-8.002 5.52-12.844 5.52z" class="cls-6" transform="translate(2108 1246.947)"/>
            <path d="M23.249 10C15.943 10 10 16.306 10 24.057v38.49c0 7.752 5.943 14.057 13.249 14.057h250.31c7.305 0 13.249-6.305 13.249-14.056V24.057c0-7.751-5.944-14.057-13.249-14.057H23.249m0-10h250.31c12.84 0 23.249 10.77 23.249 24.057v38.49c0 13.287-10.41 24.057-23.249 24.057H23.249C10.409 86.604 0 75.834 0 62.548V24.057C0 10.77 10.409 0 23.249 0z" class="cls-7" transform="translate(2108 1246.947)"/>
        </g>
        <text id="PAID" class="cls-5" transform="translate(2262 1303.579)">
            <tspan x="-50.463" y="0">PAID</tspan>
        </text>
    </g>
</svg>
