<svg xmlns="http://www.w3.org/2000/svg" width="51.167" height="61.56" viewBox="0 0 51.167 61.56">
    <defs>
        <style>
            .cls-1,.cls-2{fill:none;stroke:#fff;stroke-miterlimit:10;stroke-width:4.4px}.cls-2{stroke-linecap:round}
        </style>
    </defs>
    <g id="phone" transform="translate(2.305 2.201)">
        <path id="Path_1322" d="M614.992 706.619l-.306.356c-.949 1.086-.476 2.737.157 4.5 2 5.6 7.573 11.172 12.591 13.839 1.656.877 3.449 1 4.5.015l.346-.316a4.116 4.116 0 0 1 4.191-1.1c.911.374 1.708.77 3.048 1.3a4.565 4.565 0 0 1 2.981 4.615 18.034 18.034 0 0 1-2.266 5.536c-.757 1.367-2.921 1.791-5.182 1.111-18.207-5.475-26.565-16.615-31.603-32.275-.725-2.246-.393-4.415.949-5.215 1.121-.69 3.023-2.336 5.461-2.436a4.952 4.952 0 0 1 4.781 2.879c.468.869.757 1.888 1.161 2.784a4.384 4.384 0 0 1-.809 4.407z" class="cls-1" data-name="Path 1322" transform="translate(-603.075 -696.548)"/>
        <path id="Path_1323" d="M609.5 731.418c0-5.571 3.076-8.771 8.913-8.771 5.571 0 9.81 4.435 13.5 6.281 5.571 2.786 14.942-7.471.428-17.425" class="cls-2" data-name="Path 1323" transform="translate(-593.498 -674.26)"/>
    </g>
</svg>
